<svg xmlns="http://www.w3.org/2000/svg" width="512" height="512" viewBox="0 0 512 512">
  <defs>
    <radialGradient id="space" cx="50%" cy="42%" r="70%">
      <stop offset="0%" stop-color="#16263c"/><stop offset="100%" stop-color="#070d18"/>
    </radialGradient>
    <radialGradient id="planet" cx="38%" cy="34%" r="75%">
      <stop offset="0%" stop-color="#56b0e6"/><stop offset="55%" stop-color="#2f6aa6"/>
      <stop offset="100%" stop-color="#123a5e"/>
    </radialGradient>
    <radialGradient id="atmo" cx="50%" cy="50%" r="50%">
      <stop offset="78%" stop-color="rgba(120,200,255,0)"/>
      <stop offset="92%" stop-color="rgba(120,200,255,.45)"/>
      <stop offset="100%" stop-color="rgba(120,200,255,0)"/>
    </radialGradient>
  </defs>
  <rect width="512" height="512" rx="96" fill="url(#space)"/>
  <circle cx="256" cy="256" r="190" fill="url(#atmo)"/>
  <circle cx="256" cy="256" r="160" fill="url(#planet)"/>
  <!-- stylised continents -->
  <g fill="#4f9e44">
    <path d="M150 200 q40 -36 92 -20 q40 12 28 52 q-10 34 -56 36 q-58 4 -72 -28 q-8 -22 8 -40z"/>
    <path d="M300 150 q34 -8 50 18 q12 24 -10 40 q-30 18 -52 -2 q-18 -22 12 -56z"/>
    <path d="M210 318 q44 -22 86 4 q26 22 -2 46 q-44 30 -92 6 q-26 -20 8 -56z"/>
    <path d="M330 300 q30 -6 40 22 q6 26 -22 34 q-30 6 -36 -22 q-4 -22 18 -34z"/>
  </g>
  <!-- ice caps -->
  <ellipse cx="256" cy="108" rx="46" ry="16" fill="#e8f1f7" opacity=".85"/>
  <ellipse cx="256" cy="404" rx="40" ry="14" fill="#e8f1f7" opacity=".85"/>
  <!-- clouds -->
  <g fill="#eef4fb" opacity=".5">
    <ellipse cx="190" cy="250" rx="40" ry="14"/>
    <ellipse cx="320" cy="220" rx="30" ry="11"/>
    <ellipse cx="300" cy="350" rx="34" ry="12"/>
  </g>
</svg>
